External Loads File
version=1
nRows=46
nColumns=13
Range=5.000000e-03-10 seconds
endheader
time 	forceRightX 	forceRightY 	forceRightZ 	pointRightX 	pointRightY 	pointRightZ 	forceLeftX 	forceLeftY 	forceLeftZ 	pointLeftX 	pointLeftY 	pointLeftZ 		
5.005000 49.542775 622.671330 -0.000000 0.389243 0.307058 -0.160520 48.044555 -34.018206 -0.000000 0.098756 0.318354 -0.401560
5.010000 52.199067 639.335721 -0.000000 0.388131 0.296319 -0.160740 53.254887 -31.524752 -0.000000 0.100161 0.328905 -0.401778
5.015000 56.125362 654.215454 -0.000000 0.386482 0.285660 -0.160539 56.291032 -30.322298 -0.000000 0.102265 0.339390 -0.401943
5.020000 61.725495 667.581175 -0.000000 0.384374 0.275135 -0.160430 57.158532 -30.230959 -0.000000 0.104899 0.349973 -0.401978
5.025000 67.814466 679.815647 -0.000000 0.381809 0.264897 -0.160338 55.942261 -31.113301 -0.000000 0.108267 0.360143 -0.401979
5.030000 75.728146 690.999167 -0.000000 0.378681 0.254929 -0.160429 52.603019 -33.108789 -0.000000 0.112287 0.370351 -0.401876
5.035000 85.338565 701.259806 -0.000000 0.375084 0.245128 -0.160466 47.206275 -36.161913 -0.000000 0.116955 0.380398 -0.401802
5.040000 95.767704 710.762060 -0.000000 0.370896 0.235918 -0.160559 39.942906 -40.057867 -0.000000 0.122183 0.390212 -0.401629
5.045000 107.819703 719.439126 -0.000000 0.366076 0.226902 -0.160612 31.015190 -44.604310 -0.000000 0.128008 0.399665 -0.401389
5.050000 121.055177 727.390457 -0.000000 0.360798 0.218288 -0.160704 20.791263 -49.496680 -0.000000 0.134384 0.408868 -0.401111
5.055000 135.564314 734.630335 -0.000000 0.354833 0.210052 -0.160811 9.681625 -54.480707 -0.000000 0.141291 0.417644 -0.400903
5.060000 151.141771 741.158856 -0.000000 0.348262 0.202158 -0.161007 -1.881766 -59.335553 -0.000000 0.148648 0.425973 -0.400659
5.065000 167.707901 746.863668 -0.000000 0.341071 0.194829 -0.161153 -13.543723 -63.837361 -0.000000 0.156514 0.433932 -0.400393
5.070000 184.363359 751.725793 -0.000000 0.333582 0.187797 -0.161009 -24.942084 -67.736516 -0.000000 0.164707 0.441356 -0.400445
5.075000 201.359793 755.418292 -0.000000 0.325632 0.181230 -0.160955 -35.848054 -70.756197 -0.000000 0.173354 0.448350 -0.400378
5.080000 217.760050 757.919152 -0.000000 0.317417 0.175035 -0.160838 -45.975467 -72.687373 -0.000000 0.182268 0.454920 -0.400314
5.085000 233.013844 759.134461 -0.000000 0.308894 0.169475 -0.160694 -55.132251 -73.372547 -0.000000 0.191438 0.460919 -0.400237
5.090000 247.281459 758.690908 -0.000000 0.300075 0.164505 -0.160465 -63.248756 -72.671205 -0.000000 0.200886 0.466462 -0.400192
5.095000 259.876339 756.383207 -0.000000 0.291069 0.160045 -0.160182 -70.214894 -70.539839 -0.000000 0.210393 0.471531 -0.399822
5.100000 270.877764 751.654919 -0.000000 0.281927 0.156314 -0.159866 -76.020025 -66.843159 -0.000000 0.220070 0.476039 -0.399584
5.105000 280.416420 743.780534 -0.000000 0.272636 0.153153 -0.159453 -80.664527 -61.359007 -0.000000 0.229871 0.479968 -0.399389
5.110000 288.605459 731.909878 -0.000000 0.263167 0.150404 -0.159135 -84.123694 -53.824382 -0.000000 0.239808 0.483124 -0.398953
5.115000 294.439233 715.581518 -0.000000 0.253724 0.148391 -0.158745 -86.248520 -44.199465 -0.000000 0.249609 0.485656 -0.398865
5.120000 299.072514 693.485351 -0.000000 0.244007 0.147187 -0.158237 -87.013012 -32.427799 -0.000000 0.259539 0.487499 -0.398669
5.125000 301.575757 665.268583 -0.000000 0.234454 0.146497 -0.157925 -86.272383 -18.947059 -0.000000 0.269696 0.488631 -0.398484
5.130000 300.569101 631.074234 -0.000000 0.224949 0.146379 -0.157504 -83.966383 -4.398978 -0.000000 0.279350 0.489087 -0.398439
5.135000 296.657176 590.418152 -0.000000 0.215517 0.146984 -0.157097 -80.149263 10.777206 -0.000000 0.288940 0.488824 -0.398543
5.140000 288.910481 543.796270 -0.000000 0.206294 0.148317 -0.156815 -74.946584 25.910017 -0.000000 0.298154 0.487967 -0.398645
5.145000 277.484694 491.463585 -0.000000 0.197200 0.150446 -0.156583 -68.605805 40.550834 -0.000000 0.307011 0.486626 -0.398898
5.150000 262.171590 434.191135 -0.000000 0.188465 0.153087 -0.156226 -61.501178 54.436687 -0.000000 0.315553 0.484662 -0.399221
5.155000 243.154123 372.892978 -0.000000 0.180026 0.156572 -0.155945 -54.064738 67.680614 -0.000000 0.323527 0.482099 -0.399489
5.160000 220.911748 308.657672 -0.000000 0.171924 0.160860 -0.155765 -46.701913 80.749324 -0.000000 0.331042 0.478902 -0.399800
5.165000 195.967255 242.919921 -0.000000 0.164114 0.165878 -0.155713 -39.795878 94.336613 -0.000000 0.338140 0.475064 -0.400129
5.170000 168.674010 177.691751 -0.000000 0.156769 0.171453 -0.155777 -33.880394 109.230401 -0.000000 0.344526 0.470559 -0.400260
5.175000 140.107686 114.747058 -0.000000 0.149819 0.177603 -0.155773 -29.271450 126.428227 -0.000000 0.350347 0.465241 -0.400480
5.180000 111.196221 56.043441 -0.000000 0.143279 0.184061 -0.155811 -26.249220 146.963903 -0.000000 0.355887 0.459130 -0.401177
5.185000 82.862967 3.490035 -0.000000 0.137013 0.191021 -0.155823 -25.246388 171.759050 -0.000000 0.360606 0.452553 -0.401384
5.190000 56.133498 -41.610321 -0.000000 0.131149 0.198348 -0.155659 -26.268466 201.515771 -0.000000 0.364899 0.445047 -0.401543
5.195000 31.836509 -78.153666 -0.000000 0.125581 0.206099 -0.155532 -29.482275 236.424219 -0.000000 0.368656 0.436944 -0.402075
5.200000 10.688935 -105.499395 -0.000000 0.120471 0.214202 -0.155328 -34.815845 276.112153 -0.000000 0.371848 0.428083 -0.402630
5.205000 -6.674092 -123.465568 -0.000000 0.115761 0.222388 -0.155068 -42.047875 319.593894 -0.000000 0.374730 0.418699 -0.403376
5.210000 -19.920315 -132.394585 -0.000000 0.111432 0.230992 -0.155096 -50.219306 365.426250 -0.000000 0.377625 0.408877 -0.403225
5.215000 -28.636437 -133.244908 -0.000000 0.106756 0.239953 -0.155898 -58.803813 411.758140 -0.000000 0.380265 0.399057 -0.402437
5.220000 -32.593999 -127.583011 -0.000000 0.103333 0.249280 -0.155889 -67.470922 456.657873 -0.000000 0.382479 0.388453 -0.401969
5.225000 -32.021841 -117.308351 -0.000000 0.100276 0.258744 -0.155915 -75.519862 498.576899 -0.000000 0.384394 0.377331 -0.402217
5.230000 -27.310034 -104.428066 -0.000000 0.097791 0.268718 -0.155870 -83.027632 536.453171 -0.000000 0.386025 0.366345 -0.402083
